<svg width="101" height="101" viewBox="0 0 101 101" fill="none" xmlns="http://www.w3.org/2000/svg">
<path d="M50.5 0C22.6123 0 0 23.1984 0 51.785C0 74.6678 14.4737 94.0562 34.5384 100.91C34.8198 100.971 35.1071 101.001 35.3951 101C37.2663 101 37.9877 99.6247 37.9877 98.4299C37.9877 97.1899 37.9426 93.9435 37.9201 89.6149C36.2496 90.0065 34.5407 90.2107 32.825 90.2236C23.1083 90.2236 20.8989 82.6712 20.8989 82.6712C18.5993 76.6968 15.2853 75.0962 15.2853 75.0962C10.8891 72.0076 15.2627 71.9174 15.6009 71.9174H15.6234C20.696 72.3683 23.3563 77.283 23.3563 77.283C25.8813 81.7018 29.2629 82.9417 32.2839 82.9417C34.2815 82.9018 36.2481 82.4408 38.0554 81.589C38.5063 78.2524 39.8138 75.9754 41.2567 74.6678C30.052 73.3602 18.2612 68.9189 18.2612 49.0797C18.2612 43.421 20.2225 38.7993 23.4464 35.1922C22.9279 33.8846 21.192 28.6091 23.9424 21.485C24.3113 21.3968 24.6905 21.3588 25.0696 21.3723C26.8958 21.3723 31.0214 22.0712 37.8299 26.8056C46.1028 24.4909 54.8522 24.4909 63.125 26.8056C69.9335 22.0712 74.0592 21.3723 75.8853 21.3723C76.2644 21.3588 76.6436 21.3968 77.0125 21.485C79.7629 28.6091 78.027 33.8846 77.5085 35.1922C80.7324 38.8219 82.6937 43.4435 82.6937 49.0797C82.6937 68.964 70.8804 73.3377 59.6306 74.6227C61.4342 76.2234 63.0574 79.3797 63.0574 84.2042C63.0574 91.1254 62.9897 96.7165 62.9897 98.4073C62.9897 99.6247 63.6886 101 65.5598 101C65.8627 101.001 66.165 100.971 66.4616 100.91C86.5489 94.0562 101 74.6453 101 51.785C101 23.1984 78.3877 0 50.5 0Z" fill="black"/>
</svg>
