<svg width="537" height="47" viewBox="0 0 537 47" fill="none" xmlns="http://www.w3.org/2000/svg">
<circle cx="3.5" cy="43.5" r="3.5" fill="white"/>
<circle cx="243.5" cy="43.5" r="3.5" fill="white"/>
<circle cx="283.5" cy="43.5" r="3.5" fill="white"/>
<circle cx="353.5" cy="43.5" r="3.5" fill="white"/>
<circle cx="183.5" cy="43.5" r="3.5" fill="white"/>
<circle cx="63.5" cy="43.5" r="3.5" fill="white"/>
<circle cx="303.5" cy="43.5" r="3.5" fill="white"/>
<circle cx="173.5" cy="43.5" r="3.5" fill="white"/>
<circle cx="53.5" cy="43.5" r="3.5" fill="white"/>
<circle cx="293.5" cy="43.5" r="3.5" fill="white"/>
<circle cx="33.5" cy="43.5" r="3.5" fill="white"/>
<circle cx="193.5" cy="43.5" r="3.5" fill="white"/>
<circle cx="113.5" cy="43.5" r="3.5" fill="white"/>
<circle cx="73.5" cy="43.5" r="3.5" fill="white"/>
<circle cx="153.5" cy="43.5" r="3.5" fill="white"/>
<circle cx="403.5" cy="43.5" r="3.5" fill="white"/>
<circle cx="413.5" cy="43.5" r="3.5" fill="white"/>
<circle cx="3.5" cy="33.5" r="3.5" fill="white"/>
<circle cx="243.5" cy="33.5" r="3.5" fill="white"/>
<circle cx="203.5" cy="33.5" r="3.5" fill="white"/>
<circle cx="123.5" cy="33.5" r="3.5" fill="white"/>
<circle cx="353.5" cy="33.5" r="3.5" fill="white"/>
<circle cx="103.5" cy="33.5" r="3.5" fill="white"/>
<circle cx="63.5" cy="33.5" r="3.5" fill="white"/>
<circle cx="393.5" cy="33.5" r="3.5" fill="white"/>
<circle cx="33.5" cy="33.5" r="3.5" fill="white"/>
<circle cx="313.5" cy="33.5" r="3.5" fill="white"/>
<circle cx="3.5" cy="23.5" r="3.5" fill="white"/>
<circle cx="243.5" cy="23.5" r="3.5" fill="white"/>
<circle cx="123.5" cy="23.5" r="3.5" fill="white"/>
<circle cx="353.5" cy="23.5" r="3.5" fill="white"/>
<circle cx="23.5" cy="23.5" r="3.5" fill="white"/>
<circle cx="183.5" cy="23.5" r="3.5" fill="white"/>
<circle cx="103.5" cy="23.5" r="3.5" fill="white"/>
<circle cx="63.5" cy="23.5" r="3.5" fill="white"/>
<circle cx="303.5" cy="23.5" r="3.5" fill="white"/>
<circle cx="393.5" cy="23.5" r="3.5" fill="white"/>
<circle cx="13.5" cy="23.5" r="3.5" fill="white"/>
<circle cx="253.5" cy="23.5" r="3.5" fill="white"/>
<circle cx="293.5" cy="23.5" r="3.5" fill="white"/>
<circle cx="193.5" cy="23.5" r="3.5" fill="white"/>
<circle cx="233.5" cy="23.5" r="3.5" fill="white"/>
<circle cx="403.5" cy="23.5" r="3.5" fill="white"/>
<circle cx="413.5" cy="23.5" r="3.5" fill="white"/>
<circle cx="3.5" cy="13.5" r="3.5" fill="white"/>
<circle cx="283.5" cy="13.5" r="3.5" fill="white"/>
<circle cx="353.5" cy="13.5" r="3.5" fill="white"/>
<circle cx="263.5" cy="13.5" r="3.5" fill="white"/>
<circle cx="63.5" cy="13.5" r="3.5" fill="white"/>
<circle cx="223.5" cy="13.5" r="3.5" fill="white"/>
<circle cx="393.5" cy="13.5" r="3.5" fill="white"/>
<circle cx="173.5" cy="13.5" r="3.5" fill="white"/>
<circle cx="93.5" cy="13.5" r="3.5" fill="white"/>
<circle cx="133.5" cy="13.5" r="3.5" fill="white"/>
<circle cx="33.5" cy="13.5" r="3.5" fill="white"/>
<circle cx="3.5" cy="3.5" r="3.5" fill="white"/>
<circle cx="203.5" cy="3.5" r="3.5" fill="white"/>
<circle cx="353.5" cy="3.5" r="3.5" fill="white"/>
<circle cx="23.5" cy="3.5" r="3.5" fill="white"/>
<circle cx="183.5" cy="3.5" r="3.5" fill="white"/>
<circle cx="263.5" cy="3.5" r="3.5" fill="white"/>
<circle cx="333.5" cy="3.5" r="3.5" fill="white"/>
<circle cx="63.5" cy="3.5" r="3.5" fill="white"/>
<circle cx="223.5" cy="3.5" r="3.5" fill="white"/>
<circle cx="303.5" cy="3.5" r="3.5" fill="white"/>
<circle cx="373.5" cy="3.5" r="3.5" fill="white"/>
<circle cx="13.5" cy="3.5" r="3.5" fill="white"/>
<circle cx="93.5" cy="3.5" r="3.5" fill="white"/>
<circle cx="53.5" cy="3.5" r="3.5" fill="white"/>
<circle cx="133.5" cy="3.5" r="3.5" fill="white"/>
<circle cx="293.5" cy="3.5" r="3.5" fill="white"/>
<circle cx="363.5" cy="3.5" r="3.5" fill="white"/>
<circle cx="193.5" cy="3.5" r="3.5" fill="white"/>
<circle cx="343.5" cy="3.5" r="3.5" fill="white"/>
<circle cx="73.5" cy="3.5" r="3.5" fill="white"/>
<circle cx="313.5" cy="3.5" r="3.5" fill="white"/>
<circle cx="403.5" cy="3.5" r="3.5" fill="white"/>
<circle cx="413.5" cy="3.5" r="3.5" fill="white"/>
<circle cx="443.5" cy="3.5" r="3.5" fill="white"/>
<circle cx="533.5" cy="3.5" r="3.5" fill="white"/>
<circle cx="523.5" cy="3.5" r="3.5" fill="white"/>
<circle cx="423.5" cy="3.5" r="3.5" fill="white"/>
<circle cx="483.5" cy="3.5" r="3.5" fill="white"/>
<circle cx="513.5" cy="3.5" r="3.5" fill="white"/>
<circle cx="443.5" cy="13.5" r="3.5" fill="white"/>
<circle cx="473.5" cy="13.5" r="3.5" fill="white"/>
<circle cx="503.5" cy="13.5" r="3.5" fill="white"/>
<circle cx="453.5" cy="13.5" r="3.5" fill="white"/>
<circle cx="483.5" cy="13.5" r="3.5" fill="white"/>
<circle cx="443.5" cy="23.5" r="3.5" fill="white"/>
<circle cx="463.5" cy="23.5" r="3.5" fill="white"/>
<circle cx="523.5" cy="23.5" r="3.5" fill="white"/>
<circle cx="423.5" cy="23.5" r="3.5" fill="white"/>
<circle cx="483.5" cy="23.5" r="3.5" fill="white"/>
<circle cx="513.5" cy="23.5" r="3.5" fill="white"/>
<circle cx="443.5" cy="33.5" r="3.5" fill="white"/>
<circle cx="533.5" cy="33.5" r="3.5" fill="white"/>
<circle cx="483.5" cy="33.5" r="3.5" fill="white"/>
<circle cx="443.5" cy="43.5" r="3.5" fill="white"/>
<circle cx="503.5" cy="43.5" r="3.5" fill="white"/>
<circle cx="523.5" cy="43.5" r="3.5" fill="white"/>
<circle cx="423.5" cy="43.5" r="3.5" fill="white"/>
<circle cx="483.5" cy="43.5" r="3.5" fill="white"/>
<circle cx="513.5" cy="43.5" r="3.5" fill="white"/>
</svg>
