<?xml version="1.0" standalone="no"?>
<!DOCTYPE svg PUBLIC "-//W3C//DTD SVG 20010904//EN"
 "http://www.w3.org/TR/2001/REC-SVG-20010904/DTD/svg10.dtd">
<svg version="1.0" xmlns="http://www.w3.org/2000/svg"
 width="1029.000000pt" height="1029.000000pt" viewBox="0 0 1029.000000 1029.000000"
 preserveAspectRatio="xMidYMid meet">
<metadata>
Created by potrace 1.14, written by Peter Selinger 2001-2017
</metadata>
<g transform="translate(0.000000,1029.000000) scale(0.100000,-0.100000)"
fill="#000000" stroke="none">
<path d="M3583 7085 c-272 -74 -436 -350 -367 -619 23 -91 69 -168 139 -236
182 -174 453 -193 653 -46 69 51 111 102 151 182 41 83 51 127 51 225 0 148
-45 256 -149 360 -128 128 -311 179 -478 134z"/>
<path d="M5033 7086 c-177 -43 -331 -199 -372 -376 -6 -25 -11 -79 -11 -120 0
-282 222 -503 505 -503 448 2 675 543 360 859 -127 128 -311 181 -482 140z"/>
<path d="M6465 7081 c-88 -26 -142 -57 -208 -120 -189 -179 -214 -463 -61
-671 185 -252 558 -274 772 -46 151 162 183 376 86 574 -106 216 -361 330
-589 263z"/>
<path d="M3583 5635 c-322 -87 -478 -444 -322 -736 17 -32 60 -85 94 -119 182
-174 453 -193 653 -46 69 51 111 102 151 182 41 83 51 127 51 225 0 148 -45
256 -149 360 -127 127 -312 179 -478 134z"/>
<path d="M5033 5636 c-177 -43 -331 -199 -372 -376 -15 -63 -13 -186 3 -246
32 -120 126 -247 227 -306 165 -97 377 -95 530 3 277 179 322 556 94 785 -127
128 -311 181 -482 140z"/>
<path d="M6478 5634 c-84 -20 -149 -56 -221 -123 -106 -100 -158 -220 -158
-366 0 -219 122 -400 320 -476 288 -109 597 54 676 357 68 260 -102 539 -370
609 -72 18 -170 18 -247 -1z"/>
<path d="M3583 4185 c-322 -87 -478 -444 -322 -736 17 -32 60 -85 94 -119 182
-174 452 -193 653 -46 69 51 111 102 151 182 41 83 51 127 51 225 0 148 -45
256 -149 360 -38 37 -90 77 -121 92 -116 56 -248 71 -357 42z"/>
<path d="M5033 4186 c-177 -43 -331 -199 -372 -376 -15 -63 -13 -186 3 -245
59 -224 257 -377 486 -378 106 0 192 23 271 74 153 100 239 255 239 434 0 135
-49 253 -144 350 -126 128 -311 182 -483 141z"/>
<path d="M6470 4182 c-218 -57 -371 -258 -371 -487 0 -219 122 -400 320 -476
288 -109 597 54 676 357 68 260 -102 539 -370 609 -76 19 -173 18 -255 -3z"/>
</g>
</svg>
