<svg width="240" height="112" viewBox="0 0 240 112" fill="none" xmlns="http://www.w3.org/2000/svg">
<path d="M64 56C64 58.1217 64.8429 60.1566 66.3431 61.6569C67.8434 63.1572 69.8783 64 72 64H168C170.122 64 172.157 63.1572 173.657 61.6569C175.157 60.1566 176 58.1217 176 56C176 53.8783 175.157 51.8434 173.657 50.3431C172.157 48.8429 170.122 48 168 48H72C69.8783 48 67.8434 48.8429 66.3431 50.3431C64.8429 51.8434 64 53.8783 64 56Z" fill="black"/>
<path d="M96 96H56C45.3913 96 35.2172 91.7857 27.7157 84.2843C20.2143 76.7828 16 66.6087 16 56C16 45.3913 20.2143 35.2172 27.7157 27.7157C35.2172 20.2143 45.3913 16 56 16H96C98.1217 16 100.157 15.1571 101.657 13.6569C103.157 12.1566 104 10.1217 104 8C104 5.87827 103.157 3.84344 101.657 2.34315C100.157 0.842856 98.1217 0 96 0H56C41.1479 0 26.9041 5.89999 16.402 16.402C5.89998 26.9041 0 41.1479 0 56C0 70.8521 5.89998 85.0959 16.402 95.598C26.9041 106.1 41.1479 112 56 112H96C98.1217 112 100.157 111.157 101.657 109.657C103.157 108.157 104 106.122 104 104C104 101.878 103.157 99.8434 101.657 98.3431C100.157 96.8428 98.1217 96 96 96Z" fill="black"/>
<path d="M184 0H144C141.878 0 139.843 0.842856 138.343 2.34315C136.843 3.84344 136 5.87827 136 8C136 10.1217 136.843 12.1566 138.343 13.6569C139.843 15.1571 141.878 16 144 16H184C194.609 16 204.783 20.2143 212.284 27.7157C219.786 35.2172 224 45.3913 224 56C224 66.6087 219.786 76.7828 212.284 84.2843C204.783 91.7857 194.609 96 184 96H144C141.878 96 139.843 96.8428 138.343 98.3431C136.843 99.8434 136 101.878 136 104C136 106.122 136.843 108.157 138.343 109.657C139.843 111.157 141.878 112 144 112H184C198.852 112 213.096 106.1 223.598 95.598C234.1 85.0959 240 70.8521 240 56C240 41.1479 234.1 26.9041 223.598 16.402C213.096 5.89999 198.852 0 184 0Z" fill="black"/>
</svg>
