<svg width="18" height="18" viewBox="0 0 18 18" fill="none" xmlns="http://www.w3.org/2000/svg">
<path d="M9.70714 12.5355L7.58582 14.6568C6.38374 15.8589 4.54526 15.8589 3.34318 14.6568C2.1411 13.4548 2.1411 11.6163 3.34318 10.4142L5.4645 8.29288C5.88876 7.86862 5.88876 7.30293 5.4645 6.87867C5.04024 6.4544 4.47455 6.4544 4.05029 6.87867L1.92897 8.99999C-0.0509325 10.9799 -0.0509325 14.0912 1.92897 16.0711C3.90887 18.051 7.02014 18.051 9.00003 16.0711L11.1214 13.9497C11.5456 13.5255 11.5456 12.9598 11.1214 12.5355C10.6971 12.1113 10.1314 12.1113 9.70714 12.5355ZM9.00003 1.92892L6.87871 4.05024C6.45445 4.47451 6.45445 5.04019 6.87871 5.46445C7.30298 5.88872 7.86866 5.88872 8.29293 5.46445L10.4142 3.34313C11.6163 2.14105 13.4548 2.14105 14.6569 3.34313C15.859 4.54522 15.859 6.38369 14.6569 7.58578L12.5356 9.7071C12.1113 10.1314 12.1113 10.697 12.5356 11.1213C12.9598 11.5456 13.5255 11.5456 13.9498 11.1213L16.0711 8.99999C18.051 7.02009 18.051 3.90882 16.0711 1.92892C14.0912 -0.050978 10.9799 -0.050978 9.00003 1.92892ZM6.17161 11.8284C6.59587 12.2527 7.16156 12.2527 7.58582 11.8284L11.8285 7.58578C12.2527 7.16151 12.2527 6.59583 11.8285 6.17156C11.4042 5.7473 10.8385 5.7473 10.4142 6.17156L6.17161 10.4142C5.74734 10.8385 5.74734 11.4042 6.17161 11.8284Z" fill="black"/>
</svg>
