<svg width="20" height="10" viewBox="0 0 20 10" fill="none" xmlns="http://www.w3.org/2000/svg">
<path d="M8 8H5C3.3 8 2 6.7 2 5C2 3.3 3.3 2 5 2H8C8.6 2 9 1.6 9 1C9 0.4 8.6 0 8 0H5C2.2 0 0 2.2 0 5C0 7.8 2.2 10 5 10H8C8.6 10 9 9.6 9 9C9 8.4 8.6 8 8 8ZM15 0H12C11.4 0 11 0.4 11 1C11 1.6 11.4 2 12 2H15C16.7 2 18 3.3 18 5C18 6.7 16.7 8 15 8H12C11.4 8 11 8.4 11 9C11 9.6 11.4 10 12 10H15C17.8 10 20 7.8 20 5C20 2.2 17.8 0 15 0ZM6 5C6 5.6 6.4 6 7 6H13C13.6 6 14 5.6 14 5C14 4.4 13.6 4 13 4H7C6.4 4 6 4.4 6 5Z" fill="black"/>
</svg>
