<svg width="194" height="157" viewBox="0 0 194 157" fill="none" xmlns="http://www.w3.org/2000/svg">
<path d="M136.639 118.206C149.661 105.184 154.95 87.0755 152.306 69.9843L132.773 76.4959L147.22 17.6941L193.813 56.3527L173.467 63.0671C178.553 87.8901 171.432 114.748 152.307 133.874C129.315 156.866 95.5398 162.358 67.4614 150.761L72.7512 128.99C93.5052 139.163 119.345 135.5 136.64 118.206H136.639Z" fill="black"/>
<path d="M20.8666 94.4003C15.7799 69.5773 22.9018 42.7197 42.0264 23.5939C65.0185 0.601774 98.7936 -4.89074 126.872 6.70613L121.582 28.4763C100.828 18.303 74.9883 21.9647 57.6937 39.2601C44.6718 52.2819 39.3824 70.3905 42.0264 87.4817L61.5599 80.97L47.113 139.772L0.519165 101.117L20.8666 94.4003Z" fill="black"/>
</svg>
